<svg xmlns="http://www.w3.org/2000/svg" xml:space="preserve" width="2048" height="2048" style="shape-rendering:geometricPrecision;text-rendering:geometricPrecision;image-rendering:optimizeQuality;fill-rule:evenodd;clip-rule:evenodd"><defs><style>.fil0{fill:none}.fil5,.fil6{fill:#727272;fill-rule:nonzero}.fil6{fill:#868686}.fil2,.fil4,.fil7{fill:#8b8c8c;fill-rule:nonzero}.fil2,.fil7{fill:#999}.fil7{fill:#e8e8e8}</style></defs><g id="Layer_x0020_1"><path class="fil0" d="M0 0h2048v2048H0z"/><path class="fil0" d="M255.999 255.999h1536v1536h-1536z"/><g id="_348166408"><path id="_348167488" style="fill:#d4d4d4" d="M1107.91 645.454h400.25l213.62 366.056-14.74 296.02 58 119.25H250.958l1.512-122.93 855.44 2.2z"/><path id="_348167416" class="fil2" d="M250.958 1387.69h244.949v64H250.958z"/><path id="_348167344" class="fil2" d="M1098.29 1309.36V682.433c0-20.936 8.49-39.897 22.218-53.62 13.724-13.728 32.686-22.219 53.62-22.219h206.914c34.424 0 67.746 8.56 97.287 24.258a207.263 207.263 0 0 1 74.54 67.098l133.39 197.57c11.442 16.94 20.293 35.638 26.35 55.43 6.05 19.771 9.176 40.178 9.176 60.56v265.85h21.338c14.801 0 28.239 6.04 37.998 15.796l.125.125c9.757 9.76 15.796 23.198 15.796 37.998v66.494c0 14.802-6.04 28.24-15.796 37.999l-.125.125c-9.76 9.756-23.197 15.796-37.998 15.796h-177.448v-64.002h92.474l-.366-46.33V1011.51c0-14.587-2.103-28.756-6.174-42.057-4.061-13.275-10.226-26.152-18.352-38.182l-133.39-197.57c-13.307-19.711-31.104-35.49-51.538-46.349a143.327 143.327 0 0 0-67.288-16.755h-206.913a11.8 11.8 0 0 0-8.37 3.467 11.801 11.801 0 0 0-3.467 8.37v626.927h-64.001z"/><path id="_348167272" class="fil2" d="M1163.04 1451.69h-288v-64h288z"/><path id="_348167200" d="M1233.54 934.946h253.71l-92.472-131.413H1233.54v-64.002h166.387c8.662 0 17.124 2.146 24.724 6.088a54.073 54.073 0 0 1 19.332 16.836l106.668 151.585c6.728 9.561 9.777 20.299 9.783 30.902.003 8.814-2.123 17.328-6 24.803-3.973 7.651-9.732 14.372-16.882 19.404-8.555 6.021-19.094 9.669-30.948 9.673v.126H1233.54v-64.002z" style="fill:#acacac;fill-rule:nonzero"/><path id="_348167128" class="fil4" d="M325.041 665.186v75.265H581.04v-96.918H338.798c-2.846 0-5.73 1.714-8.086 4.476-3.503 4.108-5.671 10.165-5.671 17.177zm-64.002 107.265V665.186c0-22.55 8.093-43.34 21.173-58.676 14.202-16.654 34.186-26.979 56.587-26.979h306.243V804.451H261.04v-32z"/><path id="_348167056" class="fil5" d="M901.04 515.531c0-14.511-4.329-27.167-13.481-35.343-8.993-8.034-23.528-12.954-44.4-12.954-21.558 0-40.986 5.272-58.094 13.778-20.884 10.384-38.663 25.647-52.9 42.219l-18.79 21.871-23.586-16.371c-4.715-3.273-9.656-5.889-14.745-7.589-4.109-1.37-8.597-2.139-13.469-2.139-4.53 0-8.792.711-12.768 2.002-4.686 1.52-9.302 3.895-13.769 6.916l-23.324 15.777-18.55-21.278c-14.25-16.345-32.026-31.4-52.883-41.677-16.932-8.341-36.148-13.509-57.455-13.509-20.945 0-35.477 4.906-44.444 12.917-9.138 8.164-13.431 20.837-13.431 35.38h-64.002c0-32.14 11.163-61.644 34.932-82.88 20.424-18.246 49.216-29.418 86.945-29.418 31.625 0 60.31 7.749 85.704 20.26 20.808 10.251 39.227 23.717 55.098 38.68a111.001 111.001 0 0 1 5.429-1.919c10.432-3.387 21.304-5.252 32.518-5.252 11.608 0 22.884 2.022 33.72 5.64a113.28 113.28 0 0 1 6.223 2.284c15.89-15.128 34.366-28.756 55.298-39.164 25.49-12.675 54.375-20.53 86.343-20.53 37.645 0 66.45 11.186 86.901 29.456 23.752 21.219 34.982 50.711 34.982 82.843H901.04z"/><path id="_348166984" class="fil5" d="M646.552 835.533v460.795H346.658c-23.545 0-44.95-9.658-60.514-25.232-15.505-15.515-25.105-36.9-25.105-60.422V835.533h385.513z"/><path id="_348166912" class="fil4" d="M997.04 665.186c0-6.958-2.209-13.01-5.767-17.157-2.381-2.774-5.335-4.496-8.287-4.496H741.042v96.918H997.04v-75.265zm42.733-58.656c13.126 15.294 21.269 36.07 21.269 58.656v139.265H677.04V579.533h305.946c22.408 0 42.484 10.334 56.787 26.998z"/><path id="_348166840" class="fil5" d="M1061.04 835.533v375.141c0 23.52-9.599 44.907-25.102 60.423-15.562 15.575-36.965 25.232-60.51 25.232H677.894V835.533h383.147z"/><path id="_348166744" class="fil6" d="M1383.99 1371.53c37.72 0 71.876 15.293 96.6 40.017 24.724 24.725 40.017 58.882 40.017 96.6 0 37.72-15.293 71.876-40.017 96.6-24.724 24.724-58.88 40.017-96.6 40.017-37.719 0-71.875-15.293-96.6-40.017-24.724-24.724-40.017-58.88-40.017-96.6 0-37.718 15.293-71.875 40.017-96.6 24.725-24.724 58.881-40.017 96.6-40.017z"/><path id="_348166696" class="fil7" d="M1383.99 1425.39c22.85 0 43.541 9.265 58.519 24.242 14.978 14.978 24.242 35.67 24.242 58.519 0 22.85-9.265 43.541-24.242 58.519-14.978 14.978-35.668 24.242-58.519 24.242-22.85 0-43.541-9.265-58.519-24.242-14.978-14.978-24.242-35.668-24.242-58.519 0-22.85 9.265-43.541 24.242-58.519 14.978-14.978 35.67-24.242 58.519-24.242z"/><g><path id="_348166504" class="fil6" d="M673.304 1371.53c37.72 0 71.876 15.293 96.6 40.017 24.724 24.725 40.017 58.882 40.017 96.6 0 37.72-15.293 71.876-40.017 96.6-24.724 24.724-58.88 40.017-96.6 40.017-37.718 0-71.875-15.293-96.6-40.017-24.724-24.724-40.017-58.88-40.017-96.6 0-37.718 15.293-71.875 40.017-96.6 24.725-24.724 58.881-40.017 96.6-40.017z"/><path id="_348166552" class="fil7" d="M673.304 1425.39c22.85 0 43.541 9.265 58.519 24.242 14.978 14.978 24.242 35.67 24.242 58.519 0 22.85-9.265 43.541-24.242 58.519-14.978 14.978-35.668 24.242-58.519 24.242-22.85 0-43.541-9.265-58.519-24.242-14.978-14.978-24.242-35.668-24.242-58.519 0-22.85 9.265-43.541 24.242-58.519 14.978-14.978 35.67-24.242 58.519-24.242z"/></g></g></g></svg>